<mxfile host="app.diagrams.net" modified="2023-12-06T17:23:28.098Z" agent="Mozilla/5.0 (Windows NT 10.0; Win64; x64; rv:120.0) Gecko/20100101 Firefox/120.0" etag="NEsJ7esbH2YU6ZZ5B01c" version="22.1.6" type="github">
  <diagram id="C5RBs43oDa-KdzZeNtuy" name="Page-1">
    <mxGraphModel dx="869" dy="696" grid="1" gridSize="10" guides="1" tooltips="1" connect="1" arrows="1" fold="1" page="1" pageScale="1" pageWidth="1654" pageHeight="2336" math="0" shadow="0">
      <root>
        <mxCell id="WIyWlLk6GJQsqaUBKTNV-0" />
        <mxCell id="WIyWlLk6GJQsqaUBKTNV-1" parent="WIyWlLk6GJQsqaUBKTNV-0" />
        <mxCell id="fueHBXX8DJ0KAjWdxpP2-1" value="Fantasi.nu" style="rounded=0;whiteSpace=wrap;html=1;" parent="WIyWlLk6GJQsqaUBKTNV-1" vertex="1">
          <mxGeometry x="40" y="10" width="120" height="70" as="geometry" />
        </mxCell>
        <mxCell id="fueHBXX8DJ0KAjWdxpP2-2" value="" style="endArrow=none;html=1;rounded=0;" parent="WIyWlLk6GJQsqaUBKTNV-1" edge="1">
          <mxGeometry width="50" height="50" relative="1" as="geometry">
            <mxPoint x="40" y="1130" as="sourcePoint" />
            <mxPoint x="40" y="70" as="targetPoint" />
          </mxGeometry>
        </mxCell>
        <mxCell id="fueHBXX8DJ0KAjWdxpP2-6" value="&lt;div&gt;Anvandare&lt;/div&gt;" style="rounded=0;whiteSpace=wrap;html=1;" parent="WIyWlLk6GJQsqaUBKTNV-1" vertex="1">
          <mxGeometry x="120" y="190" width="120" height="60" as="geometry" />
        </mxCell>
        <mxCell id="fueHBXX8DJ0KAjWdxpP2-7" value="Datorer" style="rounded=0;whiteSpace=wrap;html=1;" parent="WIyWlLk6GJQsqaUBKTNV-1" vertex="1">
          <mxGeometry x="120" y="270" width="120" height="60" as="geometry" />
        </mxCell>
        <mxCell id="fueHBXX8DJ0KAjWdxpP2-35" style="edgeStyle=orthogonalEdgeStyle;rounded=0;orthogonalLoop=1;jettySize=auto;html=1;exitX=1;exitY=1;exitDx=0;exitDy=0;" parent="WIyWlLk6GJQsqaUBKTNV-1" source="fueHBXX8DJ0KAjWdxpP2-8" edge="1">
          <mxGeometry relative="1" as="geometry">
            <mxPoint x="240.15151515151513" y="409.72727272727275" as="targetPoint" />
          </mxGeometry>
        </mxCell>
        <mxCell id="fueHBXX8DJ0KAjWdxpP2-8" value="Grupper" style="rounded=0;whiteSpace=wrap;html=1;" parent="WIyWlLk6GJQsqaUBKTNV-1" vertex="1">
          <mxGeometry x="125" y="350" width="140" height="90" as="geometry" />
        </mxCell>
        <mxCell id="fueHBXX8DJ0KAjWdxpP2-9" value="" style="endArrow=none;html=1;rounded=0;" parent="WIyWlLk6GJQsqaUBKTNV-1" edge="1">
          <mxGeometry width="50" height="50" relative="1" as="geometry">
            <mxPoint x="80" y="230" as="sourcePoint" />
            <mxPoint x="120" y="229.66" as="targetPoint" />
          </mxGeometry>
        </mxCell>
        <mxCell id="fueHBXX8DJ0KAjWdxpP2-10" value="" style="endArrow=none;html=1;rounded=0;" parent="WIyWlLk6GJQsqaUBKTNV-1" edge="1">
          <mxGeometry width="50" height="50" relative="1" as="geometry">
            <mxPoint x="80" y="230" as="sourcePoint" />
            <mxPoint x="80" y="180" as="targetPoint" />
          </mxGeometry>
        </mxCell>
        <mxCell id="fueHBXX8DJ0KAjWdxpP2-11" value="" style="endArrow=none;html=1;rounded=0;" parent="WIyWlLk6GJQsqaUBKTNV-1" edge="1">
          <mxGeometry width="50" height="50" relative="1" as="geometry">
            <mxPoint x="80" y="380" as="sourcePoint" />
            <mxPoint x="80" y="230" as="targetPoint" />
          </mxGeometry>
        </mxCell>
        <mxCell id="fueHBXX8DJ0KAjWdxpP2-13" value="" style="endArrow=none;html=1;rounded=0;entryX=0;entryY=0.5;entryDx=0;entryDy=0;" parent="WIyWlLk6GJQsqaUBKTNV-1" target="fueHBXX8DJ0KAjWdxpP2-8" edge="1">
          <mxGeometry width="50" height="50" relative="1" as="geometry">
            <mxPoint x="80" y="380" as="sourcePoint" />
            <mxPoint x="120" y="376.0000000000001" as="targetPoint" />
          </mxGeometry>
        </mxCell>
        <mxCell id="fueHBXX8DJ0KAjWdxpP2-14" value="" style="endArrow=none;html=1;rounded=0;" parent="WIyWlLk6GJQsqaUBKTNV-1" target="fueHBXX8DJ0KAjWdxpP2-7" edge="1">
          <mxGeometry width="50" height="50" relative="1" as="geometry">
            <mxPoint x="80" y="300" as="sourcePoint" />
            <mxPoint x="130" y="250" as="targetPoint" />
          </mxGeometry>
        </mxCell>
        <mxCell id="fueHBXX8DJ0KAjWdxpP2-15" value="Sundsvall" style="rounded=0;whiteSpace=wrap;html=1;" parent="WIyWlLk6GJQsqaUBKTNV-1" vertex="1">
          <mxGeometry x="60" y="480" width="120" height="60" as="geometry" />
        </mxCell>
        <mxCell id="fueHBXX8DJ0KAjWdxpP2-16" value="&lt;div&gt;Anvandare&lt;/div&gt;" style="rounded=0;whiteSpace=wrap;html=1;" parent="WIyWlLk6GJQsqaUBKTNV-1" vertex="1">
          <mxGeometry x="120" y="550" width="120" height="60" as="geometry" />
        </mxCell>
        <mxCell id="fueHBXX8DJ0KAjWdxpP2-17" value="Datorer" style="rounded=0;whiteSpace=wrap;html=1;" parent="WIyWlLk6GJQsqaUBKTNV-1" vertex="1">
          <mxGeometry x="120" y="630" width="120" height="60" as="geometry" />
        </mxCell>
        <mxCell id="fueHBXX8DJ0KAjWdxpP2-18" value="Grupper" style="rounded=0;whiteSpace=wrap;html=1;" parent="WIyWlLk6GJQsqaUBKTNV-1" vertex="1">
          <mxGeometry x="120" y="710" width="150" height="100" as="geometry" />
        </mxCell>
        <mxCell id="fueHBXX8DJ0KAjWdxpP2-19" value="" style="endArrow=none;html=1;rounded=0;" parent="WIyWlLk6GJQsqaUBKTNV-1" edge="1">
          <mxGeometry width="50" height="50" relative="1" as="geometry">
            <mxPoint x="80" y="590" as="sourcePoint" />
            <mxPoint x="120" y="589.66" as="targetPoint" />
          </mxGeometry>
        </mxCell>
        <mxCell id="fueHBXX8DJ0KAjWdxpP2-20" value="" style="endArrow=none;html=1;rounded=0;" parent="WIyWlLk6GJQsqaUBKTNV-1" edge="1">
          <mxGeometry width="50" height="50" relative="1" as="geometry">
            <mxPoint x="80" y="590" as="sourcePoint" />
            <mxPoint x="80" y="540" as="targetPoint" />
          </mxGeometry>
        </mxCell>
        <mxCell id="fueHBXX8DJ0KAjWdxpP2-21" value="" style="endArrow=none;html=1;rounded=0;" parent="WIyWlLk6GJQsqaUBKTNV-1" edge="1">
          <mxGeometry width="50" height="50" relative="1" as="geometry">
            <mxPoint x="80" y="740" as="sourcePoint" />
            <mxPoint x="80" y="590" as="targetPoint" />
          </mxGeometry>
        </mxCell>
        <mxCell id="fueHBXX8DJ0KAjWdxpP2-22" value="" style="endArrow=none;html=1;rounded=0;entryX=0;entryY=0.5;entryDx=0;entryDy=0;" parent="WIyWlLk6GJQsqaUBKTNV-1" target="fueHBXX8DJ0KAjWdxpP2-18" edge="1">
          <mxGeometry width="50" height="50" relative="1" as="geometry">
            <mxPoint x="80" y="740" as="sourcePoint" />
            <mxPoint x="120" y="736.0000000000001" as="targetPoint" />
          </mxGeometry>
        </mxCell>
        <mxCell id="fueHBXX8DJ0KAjWdxpP2-23" value="" style="endArrow=none;html=1;rounded=0;" parent="WIyWlLk6GJQsqaUBKTNV-1" target="fueHBXX8DJ0KAjWdxpP2-17" edge="1">
          <mxGeometry width="50" height="50" relative="1" as="geometry">
            <mxPoint x="80" y="660" as="sourcePoint" />
            <mxPoint x="130" y="610" as="targetPoint" />
          </mxGeometry>
        </mxCell>
        <mxCell id="fueHBXX8DJ0KAjWdxpP2-25" value="Resursgrupper" style="rounded=0;whiteSpace=wrap;html=1;" parent="WIyWlLk6GJQsqaUBKTNV-1" vertex="1">
          <mxGeometry x="90" y="920" width="120" height="60" as="geometry" />
        </mxCell>
        <mxCell id="fueHBXX8DJ0KAjWdxpP2-26" value="Servrar" style="rounded=0;whiteSpace=wrap;html=1;" parent="WIyWlLk6GJQsqaUBKTNV-1" vertex="1">
          <mxGeometry x="80" y="1030" width="120" height="60" as="geometry" />
        </mxCell>
        <mxCell id="fueHBXX8DJ0KAjWdxpP2-27" value="" style="endArrow=none;html=1;rounded=0;entryX=0.005;entryY=0.375;entryDx=0;entryDy=0;entryPerimeter=0;" parent="WIyWlLk6GJQsqaUBKTNV-1" target="fueHBXX8DJ0KAjWdxpP2-5" edge="1">
          <mxGeometry width="50" height="50" relative="1" as="geometry">
            <mxPoint x="40" y="142.5" as="sourcePoint" />
            <mxPoint x="60" y="140" as="targetPoint" />
          </mxGeometry>
        </mxCell>
        <mxCell id="fueHBXX8DJ0KAjWdxpP2-28" value="" style="endArrow=none;html=1;rounded=0;entryX=0.005;entryY=0.375;entryDx=0;entryDy=0;entryPerimeter=0;" parent="WIyWlLk6GJQsqaUBKTNV-1" source="fueHBXX8DJ0KAjWdxpP2-5" edge="1">
          <mxGeometry width="50" height="50" relative="1" as="geometry">
            <mxPoint x="50" y="152.5" as="sourcePoint" />
            <mxPoint x="71" y="153" as="targetPoint" />
          </mxGeometry>
        </mxCell>
        <mxCell id="fueHBXX8DJ0KAjWdxpP2-29" value="" style="endArrow=none;html=1;rounded=0;entryX=0;entryY=0.5;entryDx=0;entryDy=0;" parent="WIyWlLk6GJQsqaUBKTNV-1" target="fueHBXX8DJ0KAjWdxpP2-15" edge="1">
          <mxGeometry width="50" height="50" relative="1" as="geometry">
            <mxPoint x="39.4" y="510" as="sourcePoint" />
            <mxPoint x="60.00000000000002" y="500.00000000000006" as="targetPoint" />
          </mxGeometry>
        </mxCell>
        <mxCell id="fueHBXX8DJ0KAjWdxpP2-5" value="Stockholm" style="rounded=0;whiteSpace=wrap;html=1;" parent="WIyWlLk6GJQsqaUBKTNV-1" vertex="1">
          <mxGeometry x="70" y="120" width="120" height="60" as="geometry" />
        </mxCell>
        <mxCell id="fueHBXX8DJ0KAjWdxpP2-30" value="" style="endArrow=none;html=1;rounded=0;entryX=0;entryY=0.5;entryDx=0;entryDy=0;" parent="WIyWlLk6GJQsqaUBKTNV-1" target="fueHBXX8DJ0KAjWdxpP2-25" edge="1">
          <mxGeometry width="50" height="50" relative="1" as="geometry">
            <mxPoint x="40" y="950" as="sourcePoint" />
            <mxPoint x="61" y="830.5" as="targetPoint" />
          </mxGeometry>
        </mxCell>
        <mxCell id="fueHBXX8DJ0KAjWdxpP2-32" value="" style="endArrow=none;html=1;rounded=0;entryX=0.001;entryY=0.66;entryDx=0;entryDy=0;entryPerimeter=0;" parent="WIyWlLk6GJQsqaUBKTNV-1" target="fueHBXX8DJ0KAjWdxpP2-26" edge="1">
          <mxGeometry width="50" height="50" relative="1" as="geometry">
            <mxPoint x="40" y="1070" as="sourcePoint" />
            <mxPoint x="90" y="910" as="targetPoint" />
          </mxGeometry>
        </mxCell>
        <mxCell id="fueHBXX8DJ0KAjWdxpP2-36" value="&lt;div&gt;Sthlm&lt;/div&gt;&lt;div&gt;Konsult&lt;/div&gt;" style="rounded=0;whiteSpace=wrap;html=1;" parent="WIyWlLk6GJQsqaUBKTNV-1" vertex="1">
          <mxGeometry x="310" y="330" width="60" height="30" as="geometry" />
        </mxCell>
        <mxCell id="fueHBXX8DJ0KAjWdxpP2-37" value="&lt;div&gt;Sthlm&lt;/div&gt;&lt;div&gt;Säljare&lt;/div&gt;" style="rounded=0;whiteSpace=wrap;html=1;" parent="WIyWlLk6GJQsqaUBKTNV-1" vertex="1">
          <mxGeometry x="310" y="370" width="60" height="30" as="geometry" />
        </mxCell>
        <mxCell id="fueHBXX8DJ0KAjWdxpP2-38" value="&lt;div&gt;Sthlm&lt;/div&gt;&lt;div&gt;IT&lt;/div&gt;" style="rounded=0;whiteSpace=wrap;html=1;" parent="WIyWlLk6GJQsqaUBKTNV-1" vertex="1">
          <mxGeometry x="310" y="410" width="60" height="30" as="geometry" />
        </mxCell>
        <mxCell id="fueHBXX8DJ0KAjWdxpP2-39" value="&lt;div&gt;Sthlmanvändare&lt;/div&gt;" style="rounded=0;whiteSpace=wrap;html=1;" parent="WIyWlLk6GJQsqaUBKTNV-1" vertex="1">
          <mxGeometry x="310" y="450" width="90" height="30" as="geometry" />
        </mxCell>
        <mxCell id="fueHBXX8DJ0KAjWdxpP2-40" value="Sthlmadmins" style="rounded=0;whiteSpace=wrap;html=1;" parent="WIyWlLk6GJQsqaUBKTNV-1" vertex="1">
          <mxGeometry x="310" y="495" width="80" height="35" as="geometry" />
        </mxCell>
        <mxCell id="fueHBXX8DJ0KAjWdxpP2-41" value="&lt;div&gt;Sthlm&lt;/div&gt;&lt;div&gt;Ledning&lt;/div&gt;" style="rounded=0;whiteSpace=wrap;html=1;" parent="WIyWlLk6GJQsqaUBKTNV-1" vertex="1">
          <mxGeometry x="310" y="290" width="60" height="30" as="geometry" />
        </mxCell>
        <mxCell id="fueHBXX8DJ0KAjWdxpP2-50" value="&lt;div&gt;Sundsvall&lt;/div&gt;&lt;div&gt;Konsult&lt;br&gt;&lt;/div&gt;" style="rounded=0;whiteSpace=wrap;html=1;" parent="WIyWlLk6GJQsqaUBKTNV-1" vertex="1">
          <mxGeometry x="310" y="682.5" width="60" height="30" as="geometry" />
        </mxCell>
        <mxCell id="fueHBXX8DJ0KAjWdxpP2-51" value="&lt;div&gt;Sundsvall&lt;/div&gt;&lt;div&gt;Säljare&lt;br&gt;&lt;/div&gt;" style="rounded=0;whiteSpace=wrap;html=1;" parent="WIyWlLk6GJQsqaUBKTNV-1" vertex="1">
          <mxGeometry x="310" y="722.5" width="60" height="30" as="geometry" />
        </mxCell>
        <mxCell id="fueHBXX8DJ0KAjWdxpP2-52" value="&lt;div&gt;Sundsvall&lt;/div&gt;&lt;div&gt;IT&lt;br&gt;&lt;/div&gt;" style="rounded=0;whiteSpace=wrap;html=1;" parent="WIyWlLk6GJQsqaUBKTNV-1" vertex="1">
          <mxGeometry x="310" y="762.5" width="60" height="30" as="geometry" />
        </mxCell>
        <mxCell id="fueHBXX8DJ0KAjWdxpP2-53" value="Ekonomi" style="rounded=0;whiteSpace=wrap;html=1;" parent="WIyWlLk6GJQsqaUBKTNV-1" vertex="1">
          <mxGeometry x="310" y="800" width="60" height="30" as="geometry" />
        </mxCell>
        <mxCell id="fueHBXX8DJ0KAjWdxpP2-54" value="&lt;div&gt;Sundsvallanvändare&lt;/div&gt;" style="rounded=0;whiteSpace=wrap;html=1;" parent="WIyWlLk6GJQsqaUBKTNV-1" vertex="1">
          <mxGeometry x="310" y="847.5" width="120" height="30" as="geometry" />
        </mxCell>
        <mxCell id="fueHBXX8DJ0KAjWdxpP2-55" value="&lt;div&gt;Sundsvall&lt;/div&gt;&lt;div&gt;Ledning&lt;br&gt;&lt;/div&gt;" style="rounded=0;whiteSpace=wrap;html=1;" parent="WIyWlLk6GJQsqaUBKTNV-1" vertex="1">
          <mxGeometry x="310" y="642.5" width="60" height="30" as="geometry" />
        </mxCell>
        <mxCell id="fueHBXX8DJ0KAjWdxpP2-56" value="&lt;div&gt;Sundsvalladmins&lt;/div&gt;" style="rounded=0;whiteSpace=wrap;html=1;" parent="WIyWlLk6GJQsqaUBKTNV-1" vertex="1">
          <mxGeometry x="310" y="890" width="110" height="30" as="geometry" />
        </mxCell>
        <mxCell id="fueHBXX8DJ0KAjWdxpP2-59" value="" style="endArrow=none;html=1;rounded=0;entryX=0;entryY=0.75;entryDx=0;entryDy=0;" parent="WIyWlLk6GJQsqaUBKTNV-1" target="fueHBXX8DJ0KAjWdxpP2-55" edge="1">
          <mxGeometry width="50" height="50" relative="1" as="geometry">
            <mxPoint x="270" y="710" as="sourcePoint" />
            <mxPoint x="320" y="660" as="targetPoint" />
          </mxGeometry>
        </mxCell>
        <mxCell id="fueHBXX8DJ0KAjWdxpP2-60" value="" style="endArrow=none;html=1;rounded=0;exitX=1;exitY=0.25;exitDx=0;exitDy=0;" parent="WIyWlLk6GJQsqaUBKTNV-1" source="fueHBXX8DJ0KAjWdxpP2-18" edge="1">
          <mxGeometry width="50" height="50" relative="1" as="geometry">
            <mxPoint x="260" y="750" as="sourcePoint" />
            <mxPoint x="310" y="700" as="targetPoint" />
          </mxGeometry>
        </mxCell>
        <mxCell id="fueHBXX8DJ0KAjWdxpP2-63" value="" style="endArrow=none;html=1;rounded=0;" parent="WIyWlLk6GJQsqaUBKTNV-1" edge="1">
          <mxGeometry width="50" height="50" relative="1" as="geometry">
            <mxPoint x="270" y="750" as="sourcePoint" />
            <mxPoint x="310" y="735" as="targetPoint" />
          </mxGeometry>
        </mxCell>
        <mxCell id="fueHBXX8DJ0KAjWdxpP2-65" value="" style="endArrow=none;html=1;rounded=0;" parent="WIyWlLk6GJQsqaUBKTNV-1" target="fueHBXX8DJ0KAjWdxpP2-52" edge="1">
          <mxGeometry width="50" height="50" relative="1" as="geometry">
            <mxPoint x="270" y="762.5" as="sourcePoint" />
            <mxPoint x="320" y="712.5" as="targetPoint" />
          </mxGeometry>
        </mxCell>
        <mxCell id="fueHBXX8DJ0KAjWdxpP2-68" value="" style="endArrow=none;html=1;rounded=0;entryX=0;entryY=0;entryDx=0;entryDy=0;" parent="WIyWlLk6GJQsqaUBKTNV-1" target="fueHBXX8DJ0KAjWdxpP2-53" edge="1">
          <mxGeometry width="50" height="50" relative="1" as="geometry">
            <mxPoint x="270" y="780" as="sourcePoint" />
            <mxPoint x="320" y="730" as="targetPoint" />
          </mxGeometry>
        </mxCell>
        <mxCell id="fueHBXX8DJ0KAjWdxpP2-69" value="" style="endArrow=none;html=1;rounded=0;entryX=0;entryY=0;entryDx=0;entryDy=0;" parent="WIyWlLk6GJQsqaUBKTNV-1" target="fueHBXX8DJ0KAjWdxpP2-54" edge="1">
          <mxGeometry width="50" height="50" relative="1" as="geometry">
            <mxPoint x="270" y="792.5" as="sourcePoint" />
            <mxPoint x="320" y="742.5" as="targetPoint" />
          </mxGeometry>
        </mxCell>
        <mxCell id="fueHBXX8DJ0KAjWdxpP2-70" value="" style="endArrow=none;html=1;rounded=0;entryX=0;entryY=0;entryDx=0;entryDy=0;" parent="WIyWlLk6GJQsqaUBKTNV-1" target="fueHBXX8DJ0KAjWdxpP2-56" edge="1">
          <mxGeometry width="50" height="50" relative="1" as="geometry">
            <mxPoint x="270" y="812.5" as="sourcePoint" />
            <mxPoint x="320" y="762.5" as="targetPoint" />
          </mxGeometry>
        </mxCell>
        <mxCell id="fueHBXX8DJ0KAjWdxpP2-71" value="" style="endArrow=none;html=1;rounded=0;entryX=0;entryY=0.5;entryDx=0;entryDy=0;" parent="WIyWlLk6GJQsqaUBKTNV-1" target="fueHBXX8DJ0KAjWdxpP2-41" edge="1">
          <mxGeometry width="50" height="50" relative="1" as="geometry">
            <mxPoint x="265" y="350" as="sourcePoint" />
            <mxPoint x="315" y="300" as="targetPoint" />
          </mxGeometry>
        </mxCell>
        <mxCell id="fueHBXX8DJ0KAjWdxpP2-72" value="" style="endArrow=none;html=1;rounded=0;exitX=1.004;exitY=0.102;exitDx=0;exitDy=0;exitPerimeter=0;entryX=0.024;entryY=0.347;entryDx=0;entryDy=0;entryPerimeter=0;" parent="WIyWlLk6GJQsqaUBKTNV-1" source="fueHBXX8DJ0KAjWdxpP2-8" target="fueHBXX8DJ0KAjWdxpP2-36" edge="1">
          <mxGeometry width="50" height="50" relative="1" as="geometry">
            <mxPoint x="260" y="380" as="sourcePoint" />
            <mxPoint x="310" y="330" as="targetPoint" />
          </mxGeometry>
        </mxCell>
        <mxCell id="fueHBXX8DJ0KAjWdxpP2-73" value="" style="endArrow=none;html=1;rounded=0;entryX=0.002;entryY=0.183;entryDx=0;entryDy=0;entryPerimeter=0;" parent="WIyWlLk6GJQsqaUBKTNV-1" target="fueHBXX8DJ0KAjWdxpP2-37" edge="1">
          <mxGeometry width="50" height="50" relative="1" as="geometry">
            <mxPoint x="265" y="380" as="sourcePoint" />
            <mxPoint x="315" y="330" as="targetPoint" />
          </mxGeometry>
        </mxCell>
        <mxCell id="fueHBXX8DJ0KAjWdxpP2-74" value="" style="endArrow=none;html=1;rounded=0;entryX=0;entryY=0;entryDx=0;entryDy=0;" parent="WIyWlLk6GJQsqaUBKTNV-1" target="fueHBXX8DJ0KAjWdxpP2-38" edge="1">
          <mxGeometry width="50" height="50" relative="1" as="geometry">
            <mxPoint x="265" y="400" as="sourcePoint" />
            <mxPoint x="315" y="350" as="targetPoint" />
          </mxGeometry>
        </mxCell>
        <mxCell id="fueHBXX8DJ0KAjWdxpP2-76" value="" style="endArrow=none;html=1;rounded=0;entryX=0;entryY=0;entryDx=0;entryDy=0;" parent="WIyWlLk6GJQsqaUBKTNV-1" target="fueHBXX8DJ0KAjWdxpP2-39" edge="1">
          <mxGeometry width="50" height="50" relative="1" as="geometry">
            <mxPoint x="265" y="420" as="sourcePoint" />
            <mxPoint x="315" y="370" as="targetPoint" />
          </mxGeometry>
        </mxCell>
        <mxCell id="fueHBXX8DJ0KAjWdxpP2-77" value="" style="endArrow=none;html=1;rounded=0;entryX=0;entryY=0;entryDx=0;entryDy=0;" parent="WIyWlLk6GJQsqaUBKTNV-1" target="fueHBXX8DJ0KAjWdxpP2-40" edge="1">
          <mxGeometry width="50" height="50" relative="1" as="geometry">
            <mxPoint x="265" y="440" as="sourcePoint" />
            <mxPoint x="315" y="390" as="targetPoint" />
          </mxGeometry>
        </mxCell>
        <mxCell id="fueHBXX8DJ0KAjWdxpP2-78" value="&lt;div&gt;Security Baseline&lt;/div&gt;&lt;div&gt;Win10 22h2&lt;br&gt;&lt;/div&gt;" style="rounded=1;whiteSpace=wrap;html=1;" parent="WIyWlLk6GJQsqaUBKTNV-1" vertex="1">
          <mxGeometry x="570" y="190" width="120" height="60" as="geometry" />
        </mxCell>
        <mxCell id="fueHBXX8DJ0KAjWdxpP2-79" value="&lt;div&gt;Strikta&lt;/div&gt;&lt;div&gt;Lösenordsregler&lt;/div&gt;" style="rounded=1;whiteSpace=wrap;html=1;" parent="WIyWlLk6GJQsqaUBKTNV-1" vertex="1">
          <mxGeometry x="570" y="280" width="120" height="60" as="geometry" />
        </mxCell>
        <mxCell id="fueHBXX8DJ0KAjWdxpP2-80" value="&lt;div&gt;Lokal admin&lt;/div&gt;&lt;div&gt;på kilentdatorer&lt;/div&gt;" style="rounded=1;whiteSpace=wrap;html=1;" parent="WIyWlLk6GJQsqaUBKTNV-1" vertex="1">
          <mxGeometry x="570" y="370" width="120" height="60" as="geometry" />
        </mxCell>
        <mxCell id="fueHBXX8DJ0KAjWdxpP2-81" value="&lt;div&gt;Skrivbordsinställningar&lt;/div&gt;" style="rounded=1;whiteSpace=wrap;html=1;" parent="WIyWlLk6GJQsqaUBKTNV-1" vertex="1">
          <mxGeometry x="570" y="465" width="130" height="60" as="geometry" />
        </mxCell>
        <mxCell id="fueHBXX8DJ0KAjWdxpP2-82" value="Folder redirection" style="rounded=1;whiteSpace=wrap;html=1;" parent="WIyWlLk6GJQsqaUBKTNV-1" vertex="1">
          <mxGeometry x="570" y="560" width="120" height="60" as="geometry" />
        </mxCell>
        <mxCell id="fueHBXX8DJ0KAjWdxpP2-83" value="&lt;div&gt;Blockera&lt;/div&gt;&lt;div&gt;cmd/powershell&lt;/div&gt;&lt;div&gt;(ej admins)&lt;br&gt;&lt;/div&gt;" style="rounded=1;whiteSpace=wrap;html=1;" parent="WIyWlLk6GJQsqaUBKTNV-1" vertex="1">
          <mxGeometry x="570" y="650" width="120" height="60" as="geometry" />
        </mxCell>
        <mxCell id="fueHBXX8DJ0KAjWdxpP2-84" value="&lt;div&gt;Brandväggconfig&lt;/div&gt;&lt;div&gt;&lt;br&gt;&lt;/div&gt;&lt;div&gt;ping/spam&lt;/div&gt;" style="rounded=1;whiteSpace=wrap;html=1;" parent="WIyWlLk6GJQsqaUBKTNV-1" vertex="1">
          <mxGeometry x="571" y="750" width="120" height="60" as="geometry" />
        </mxCell>
        <mxCell id="y0CzShBzs5Wo7ppqLKTa-0" value="&lt;div&gt;Stockholm&lt;/div&gt;&lt;div&gt;Print&amp;amp;Fil-serv&lt;br&gt;&lt;/div&gt;" style="rounded=0;whiteSpace=wrap;html=1;" vertex="1" parent="WIyWlLk6GJQsqaUBKTNV-1">
          <mxGeometry x="240" y="1010" width="85" height="30" as="geometry" />
        </mxCell>
        <mxCell id="y0CzShBzs5Wo7ppqLKTa-1" value="&lt;div&gt;Sundsvall&lt;/div&gt;&lt;div&gt;Print&amp;amp;Fil-Serv&lt;br&gt;&lt;/div&gt;" style="rounded=0;whiteSpace=wrap;html=1;" vertex="1" parent="WIyWlLk6GJQsqaUBKTNV-1">
          <mxGeometry x="240" y="1070" width="85" height="30" as="geometry" />
        </mxCell>
        <mxCell id="y0CzShBzs5Wo7ppqLKTa-2" value="" style="endArrow=none;html=1;rounded=0;exitX=1;exitY=0.5;exitDx=0;exitDy=0;exitPerimeter=0;" edge="1" parent="WIyWlLk6GJQsqaUBKTNV-1" source="fueHBXX8DJ0KAjWdxpP2-26">
          <mxGeometry width="50" height="50" relative="1" as="geometry">
            <mxPoint x="210" y="1050" as="sourcePoint" />
            <mxPoint x="240" y="1020" as="targetPoint" />
          </mxGeometry>
        </mxCell>
        <mxCell id="y0CzShBzs5Wo7ppqLKTa-3" value="" style="endArrow=none;html=1;rounded=0;entryX=0;entryY=0.5;entryDx=0;entryDy=0;" edge="1" parent="WIyWlLk6GJQsqaUBKTNV-1" target="y0CzShBzs5Wo7ppqLKTa-1">
          <mxGeometry width="50" height="50" relative="1" as="geometry">
            <mxPoint x="200" y="1070" as="sourcePoint" />
            <mxPoint x="250" y="1020" as="targetPoint" />
          </mxGeometry>
        </mxCell>
        <mxCell id="y0CzShBzs5Wo7ppqLKTa-4" value="" style="endArrow=none;html=1;rounded=0;exitX=1;exitY=0.25;exitDx=0;exitDy=0;strokeColor=#0D4DFF;" edge="1" parent="WIyWlLk6GJQsqaUBKTNV-1" source="fueHBXX8DJ0KAjWdxpP2-7">
          <mxGeometry width="50" height="50" relative="1" as="geometry">
            <mxPoint x="520" y="260" as="sourcePoint" />
            <mxPoint x="570" y="210" as="targetPoint" />
          </mxGeometry>
        </mxCell>
        <mxCell id="y0CzShBzs5Wo7ppqLKTa-5" value="" style="endArrow=none;html=1;rounded=0;strokeColor=#0F37FF;" edge="1" parent="WIyWlLk6GJQsqaUBKTNV-1">
          <mxGeometry width="50" height="50" relative="1" as="geometry">
            <mxPoint x="380" y="570" as="sourcePoint" />
            <mxPoint x="570" y="220" as="targetPoint" />
          </mxGeometry>
        </mxCell>
        <mxCell id="y0CzShBzs5Wo7ppqLKTa-6" value="" style="endArrow=none;html=1;rounded=0;exitX=1;exitY=0.25;exitDx=0;exitDy=0;strokeColor=#1239FF;" edge="1" parent="WIyWlLk6GJQsqaUBKTNV-1" source="fueHBXX8DJ0KAjWdxpP2-17">
          <mxGeometry width="50" height="50" relative="1" as="geometry">
            <mxPoint x="330" y="620" as="sourcePoint" />
            <mxPoint x="380" y="570" as="targetPoint" />
          </mxGeometry>
        </mxCell>
        <mxCell id="y0CzShBzs5Wo7ppqLKTa-7" value="" style="endArrow=none;html=1;rounded=0;exitX=1;exitY=0;exitDx=0;exitDy=0;strokeColor=#FF121A;" edge="1" parent="WIyWlLk6GJQsqaUBKTNV-1" source="fueHBXX8DJ0KAjWdxpP2-40">
          <mxGeometry width="50" height="50" relative="1" as="geometry">
            <mxPoint x="520" y="350" as="sourcePoint" />
            <mxPoint x="570" y="300" as="targetPoint" />
          </mxGeometry>
        </mxCell>
        <mxCell id="y0CzShBzs5Wo7ppqLKTa-8" value="" style="endArrow=none;html=1;rounded=0;strokeColor=#FF121A;" edge="1" parent="WIyWlLk6GJQsqaUBKTNV-1">
          <mxGeometry width="50" height="50" relative="1" as="geometry">
            <mxPoint x="470" y="870" as="sourcePoint" />
            <mxPoint x="570" y="320" as="targetPoint" />
          </mxGeometry>
        </mxCell>
        <mxCell id="y0CzShBzs5Wo7ppqLKTa-9" value="" style="endArrow=none;html=1;rounded=0;entryX=1;entryY=0;entryDx=0;entryDy=0;strokeColor=#FF121A;" edge="1" parent="WIyWlLk6GJQsqaUBKTNV-1" target="fueHBXX8DJ0KAjWdxpP2-56">
          <mxGeometry width="50" height="50" relative="1" as="geometry">
            <mxPoint x="470" y="870" as="sourcePoint" />
            <mxPoint x="510" y="850" as="targetPoint" />
          </mxGeometry>
        </mxCell>
        <mxCell id="y0CzShBzs5Wo7ppqLKTa-10" value="" style="endArrow=none;html=1;rounded=0;strokeColor=#FF121A;" edge="1" parent="WIyWlLk6GJQsqaUBKTNV-1">
          <mxGeometry width="50" height="50" relative="1" as="geometry">
            <mxPoint x="480" y="880" as="sourcePoint" />
            <mxPoint x="570" y="390" as="targetPoint" />
          </mxGeometry>
        </mxCell>
        <mxCell id="y0CzShBzs5Wo7ppqLKTa-11" value="" style="endArrow=none;html=1;rounded=0;exitX=1;exitY=0.25;exitDx=0;exitDy=0;strokeColor=#FF121A;" edge="1" parent="WIyWlLk6GJQsqaUBKTNV-1" source="fueHBXX8DJ0KAjWdxpP2-56">
          <mxGeometry width="50" height="50" relative="1" as="geometry">
            <mxPoint x="430" y="927.5" as="sourcePoint" />
            <mxPoint x="480" y="880" as="targetPoint" />
          </mxGeometry>
        </mxCell>
        <mxCell id="y0CzShBzs5Wo7ppqLKTa-12" value="" style="endArrow=none;html=1;rounded=0;exitX=1;exitY=0.25;exitDx=0;exitDy=0;strokeColor=#FF121A;" edge="1" parent="WIyWlLk6GJQsqaUBKTNV-1" source="fueHBXX8DJ0KAjWdxpP2-40">
          <mxGeometry width="50" height="50" relative="1" as="geometry">
            <mxPoint x="520" y="440" as="sourcePoint" />
            <mxPoint x="570" y="390" as="targetPoint" />
          </mxGeometry>
        </mxCell>
        <mxCell id="y0CzShBzs5Wo7ppqLKTa-13" value="" style="endArrow=none;html=1;rounded=0;exitX=1;exitY=0.25;exitDx=0;exitDy=0;strokeColor=#12FF39;" edge="1" parent="WIyWlLk6GJQsqaUBKTNV-1" source="fueHBXX8DJ0KAjWdxpP2-39">
          <mxGeometry width="50" height="50" relative="1" as="geometry">
            <mxPoint x="520" y="530" as="sourcePoint" />
            <mxPoint x="570" y="480" as="targetPoint" />
          </mxGeometry>
        </mxCell>
        <mxCell id="y0CzShBzs5Wo7ppqLKTa-14" value="" style="endArrow=none;html=1;rounded=0;exitX=1;exitY=0;exitDx=0;exitDy=0;strokeColor=#12FF39;" edge="1" parent="WIyWlLk6GJQsqaUBKTNV-1" source="fueHBXX8DJ0KAjWdxpP2-54">
          <mxGeometry width="50" height="50" relative="1" as="geometry">
            <mxPoint x="520" y="550" as="sourcePoint" />
            <mxPoint x="570" y="500" as="targetPoint" />
          </mxGeometry>
        </mxCell>
        <mxCell id="y0CzShBzs5Wo7ppqLKTa-15" value="" style="endArrow=none;html=1;rounded=0;strokeColor=#FF00FF;" edge="1" parent="WIyWlLk6GJQsqaUBKTNV-1">
          <mxGeometry width="50" height="50" relative="1" as="geometry">
            <mxPoint x="450" y="1010" as="sourcePoint" />
            <mxPoint x="570" y="570" as="targetPoint" />
          </mxGeometry>
        </mxCell>
        <mxCell id="y0CzShBzs5Wo7ppqLKTa-16" value="" style="endArrow=none;html=1;rounded=0;exitX=1;exitY=0.25;exitDx=0;exitDy=0;strokeColor=#FF00FF;" edge="1" parent="WIyWlLk6GJQsqaUBKTNV-1" source="y0CzShBzs5Wo7ppqLKTa-0">
          <mxGeometry width="50" height="50" relative="1" as="geometry">
            <mxPoint x="400" y="1060" as="sourcePoint" />
            <mxPoint x="450" y="1010" as="targetPoint" />
          </mxGeometry>
        </mxCell>
        <mxCell id="y0CzShBzs5Wo7ppqLKTa-17" value="" style="endArrow=none;html=1;rounded=0;strokeColor=#FF00FF;entryX=0.014;entryY=0.956;entryDx=0;entryDy=0;entryPerimeter=0;" edge="1" parent="WIyWlLk6GJQsqaUBKTNV-1" target="fueHBXX8DJ0KAjWdxpP2-82">
          <mxGeometry width="50" height="50" relative="1" as="geometry">
            <mxPoint x="470" y="1080" as="sourcePoint" />
            <mxPoint x="570" y="620" as="targetPoint" />
          </mxGeometry>
        </mxCell>
        <mxCell id="y0CzShBzs5Wo7ppqLKTa-18" value="" style="endArrow=none;html=1;rounded=0;exitX=1;exitY=0.25;exitDx=0;exitDy=0;strokeColor=#FF00FF;" edge="1" parent="WIyWlLk6GJQsqaUBKTNV-1" source="y0CzShBzs5Wo7ppqLKTa-1">
          <mxGeometry width="50" height="50" relative="1" as="geometry">
            <mxPoint x="420" y="1130" as="sourcePoint" />
            <mxPoint x="470" y="1080" as="targetPoint" />
          </mxGeometry>
        </mxCell>
        <mxCell id="y0CzShBzs5Wo7ppqLKTa-19" value="" style="endArrow=none;html=1;rounded=0;exitX=1;exitY=0.5;exitDx=0;exitDy=0;strokeColor=#00CCCC;" edge="1" parent="WIyWlLk6GJQsqaUBKTNV-1" source="fueHBXX8DJ0KAjWdxpP2-54">
          <mxGeometry width="50" height="50" relative="1" as="geometry">
            <mxPoint x="520" y="740" as="sourcePoint" />
            <mxPoint x="570" y="690" as="targetPoint" />
          </mxGeometry>
        </mxCell>
        <mxCell id="y0CzShBzs5Wo7ppqLKTa-20" value="" style="endArrow=none;html=1;rounded=0;strokeColor=#FF0080;" edge="1" parent="WIyWlLk6GJQsqaUBKTNV-1">
          <mxGeometry width="50" height="50" relative="1" as="geometry">
            <mxPoint x="280" y="40" as="sourcePoint" />
            <mxPoint x="570" y="770" as="targetPoint" />
          </mxGeometry>
        </mxCell>
        <mxCell id="y0CzShBzs5Wo7ppqLKTa-21" value="" style="endArrow=none;html=1;rounded=0;strokeColor=#FF0080;" edge="1" parent="WIyWlLk6GJQsqaUBKTNV-1">
          <mxGeometry width="50" height="50" relative="1" as="geometry">
            <mxPoint x="160" y="40" as="sourcePoint" />
            <mxPoint x="280" y="40" as="targetPoint" />
          </mxGeometry>
        </mxCell>
        <mxCell id="y0CzShBzs5Wo7ppqLKTa-22" value="&lt;div&gt;Security Baseline&lt;/div&gt;&lt;div&gt;Win server 22&lt;br&gt;&lt;/div&gt;" style="rounded=1;whiteSpace=wrap;html=1;" vertex="1" parent="WIyWlLk6GJQsqaUBKTNV-1">
          <mxGeometry x="570" y="848" width="120" height="60" as="geometry" />
        </mxCell>
        <mxCell id="y0CzShBzs5Wo7ppqLKTa-23" value="" style="endArrow=none;html=1;rounded=0;exitX=1;exitY=0;exitDx=0;exitDy=0;" edge="1" parent="WIyWlLk6GJQsqaUBKTNV-1" source="y0CzShBzs5Wo7ppqLKTa-0">
          <mxGeometry width="50" height="50" relative="1" as="geometry">
            <mxPoint x="520" y="910" as="sourcePoint" />
            <mxPoint x="570" y="860" as="targetPoint" />
          </mxGeometry>
        </mxCell>
        <mxCell id="y0CzShBzs5Wo7ppqLKTa-24" value="" style="endArrow=none;html=1;rounded=0;exitX=1;exitY=0;exitDx=0;exitDy=0;" edge="1" parent="WIyWlLk6GJQsqaUBKTNV-1" source="y0CzShBzs5Wo7ppqLKTa-1">
          <mxGeometry width="50" height="50" relative="1" as="geometry">
            <mxPoint x="520" y="950" as="sourcePoint" />
            <mxPoint x="570" y="900" as="targetPoint" />
          </mxGeometry>
        </mxCell>
      </root>
    </mxGraphModel>
  </diagram>
</mxfile>
